<?xml version="1.0" encoding="utf-8"?>
<!-- Generator: Adobe Illustrator 27.2.0, SVG Export Plug-In . SVG Version: 6.00 Build 0)  -->
<svg version="1.1" id="Слой_1" xmlns="http://www.w3.org/2000/svg" xmlns:xlink="http://www.w3.org/1999/xlink" x="0px" y="0px"
	 viewBox="0 0 800 800" style="enable-background:new 0 0 800 800;" xml:space="preserve">
<style type="text/css">
	.st0{fill:#222222;}
</style>
<path class="st0" d="M15.3,710.9c-20.4,20.4-20.4,53.4,0,73.8c20.4,20.4,53.4,20.4,73.8,0L15.3,710.9z M436.9,436.9
	c20.4-20.4,20.4-53.4,0-73.8s-53.4-20.4-73.8,0L436.9,436.9z M363.1,363.1c-20.4,20.4-20.4,53.4,0,73.8s53.4,20.4,73.8,0
	L363.1,363.1z M784.7,89.1c20.4-20.4,20.4-53.4,0-73.8c-20.4-20.4-53.4-20.4-73.8,0L784.7,89.1z M436.9,363.1
	c-20.4-20.4-53.4-20.4-73.8,0s-20.4,53.4,0,73.8L436.9,363.1z M710.9,784.7c20.4,20.4,53.4,20.4,73.8,0c20.4-20.4,20.4-53.4,0-73.8
	L710.9,784.7z M363.1,436.9c20.4,20.4,53.4,20.4,73.8,0s20.4-53.4,0-73.8L363.1,436.9z M89.1,15.3c-20.4-20.4-53.4-20.4-73.8,0
	c-20.4,20.4-20.4,53.4,0,73.8L89.1,15.3z M89.1,784.7l347.8-347.8l-73.8-73.8L15.3,710.9L89.1,784.7z M436.9,436.9L784.7,89.1
	l-73.8-73.8L363.1,363.1L436.9,436.9z M363.1,436.9l347.8,347.8l73.8-73.8L436.9,363.1L363.1,436.9z M436.9,363.1L89.1,15.3
	L15.3,89.1l347.8,347.8L436.9,363.1z"/>
</svg>
